<?xml version="1.0" encoding="UTF-8" standalone="no"?>
<!-- Created with Inkscape (http://www.inkscape.org/) -->

<svg
   width="550"
   height="200"
   viewBox="0 0 137.5 50"
   version="1.1"
   id="svg1"
   inkscape:version="1.4.3 (0d15f75042, 2025-12-25)"
   sodipodi:docname="dbdm-logo.svg"
   inkscape:export-filename="dbdm-logo.png"
   inkscape:export-xdpi="48"
   inkscape:export-ydpi="48"
   xmlns:inkscape="http://www.inkscape.org/namespaces/inkscape"
   xmlns:sodipodi="http://sodipodi.sourceforge.net/DTD/sodipodi-0.dtd"
   xmlns="http://www.w3.org/2000/svg"
   xmlns:svg="http://www.w3.org/2000/svg">
  <sodipodi:namedview
     id="namedview1"
     pagecolor="#ffffff"
     bordercolor="#000000"
     borderopacity="0.25"
     inkscape:showpageshadow="2"
     inkscape:pageopacity="0.0"
     inkscape:pagecheckerboard="0"
     inkscape:deskcolor="#d1d1d1"
     inkscape:document-units="mm"
     inkscape:zoom="1.251579"
     inkscape:cx="204.54162"
     inkscape:cy="137.02691"
     inkscape:window-width="1906"
     inkscape:window-height="1032"
     inkscape:window-x="0"
     inkscape:window-y="0"
     inkscape:window-maximized="1"
     inkscape:current-layer="layer1" />
  <defs
     id="defs1">
    <inkscape:path-effect
       effect="fillet_chamfer"
       id="path-effect3"
       is_visible="true"
       lpeversion="1"
       nodesatellites_param="F,0,0,1,0,0,0,1 @ F,0,0,1,0,1,0,1 @ F,0,0,1,0,1,0,1 @ F,0,0,1,0,1,0,1 @ F,0,0,1,0,1,0,1 @ F,0,0,1,0,1,0,1 @ F,0,0,1,0,1,0,1 @ F,0,0,1,0,1,0,1 @ F,0,0,1,0,1,0,1 @ F,0,0,1,0,1,0,1 @ F,0,0,1,0,0,0,1"
       radius="4"
       unit="px"
       method="auto"
       mode="F"
       chamfer_steps="1"
       flexible="false"
       use_knot_distance="true"
       apply_no_radius="true"
       apply_with_radius="true"
       only_selected="false"
       hide_knots="false" />
    <inkscape:path-effect
       effect="fillet_chamfer"
       id="path-effect9"
       is_visible="true"
       lpeversion="1"
       nodesatellites_param="F,0,0,1,0,0,0,1 @ F,0,0,1,0,1,0,1 @ F,0,0,1,0,1,0,1 @ F,0,0,1,0,1,0,1 @ F,0,0,1,0,1,0,1 @ F,0,0,1,0,1,0,1 @ F,0,0,1,0,1,0,1 @ F,0,0,1,0,1,0,1 @ F,0,0,1,0,1,0,1 @ F,0,0,1,0,1,0,1 @ F,0,0,1,0,0,0,1"
       radius="4"
       unit="px"
       method="auto"
       mode="F"
       chamfer_steps="1"
       flexible="false"
       use_knot_distance="true"
       apply_no_radius="true"
       apply_with_radius="true"
       only_selected="false"
       hide_knots="false" />
  </defs>
  <g
     inkscape:label="canvas"
     inkscape:groupmode="layer"
     id="layer1">
    <g
       id="g5"
       inkscape:label="D1"
       transform="matrix(1.1955016,0,0,1.2949127,-30.416638,-34.141336)">
      <path
         d="m 40.629921,59.527559 c 5.237841,-1.653807 10.582888,-3.473976 15.092001,-6.684953 0.449608,-0.32017 1.161024,-0.865028 1.572086,-1.233688 1.669578,-1.497359 3.084487,-3.533101 3.037886,-5.7831 -0.01142,-0.551303 -0.214591,-1.430636 -0.409737,-1.946897 -0.97942,-2.591069 -3.229373,-4.481724 -5.493515,-6.052322 -0.45374,-0.314753 -1.205255,-0.801677 -1.678265,-1.086752 -3.550453,-2.139794 -7.378402,-3.812984 -11.266707,-5.22271 -0.519189,-0.188235 -1.389515,-0.336035 -1.9418,-0.336035 h -1.219035 c -0.552285,0 -0.998347,0.447712 -0.996307,0.999993 0.01138,3.08137 0.02276,6.162739 0.03414,9.244109 0.002,0.552281 -0.444022,0.999993 -0.996307,0.999993 h -8.72086 a 0.52448627,0.52448627 117.67639 0 0 -0.431478,0.822668 l 2.584943,3.740491 a 1.9066276,1.9066276 27.676394 0 0 1.568522,0.822668 h 5.028549 c 0.552285,0 0.99728,0.447707 0.993924,0.999982 -0.02171,3.572184 -0.04342,7.144368 -0.06512,10.716553"
         style="stroke-width:0.261951"
         id="path4"
         inkscape:label="d_main"
         inkscape:path-effect="#path-effect9"
         inkscape:original-d="m 40.629921,59.527559 c 5.552583,-1.753184 11.225643,-3.693325 15.895599,-7.279127 2.227475,-1.720394 4.332882,-4.426913 3.690158,-7.414264 -0.818208,-3.429122 -3.823458,-5.709796 -6.6144,-7.569032 -4.068811,-2.573047 -8.535232,-4.495078 -13.059408,-6.084034 -1.073011,0 -2.146023,0 -3.219035,0 0.01384,3.748032 0.02769,7.496063 0.04153,11.244095 -3.57362,0 -7.14724,0 -10.72086,0 1.240662,1.795276 2.481325,3.590551 3.721987,5.385827 2.34285,0 4.685699,0 7.028549,0 -0.02373,3.905512 -0.04747,7.811023 -0.0712,11.716535" />
      <path
         d="m 40.181399,37.612871 c 0.0645,5.319981 0.04811,12.902454 4e-6,18.222377 22.885885,-4.44076 22.101024,-15.224182 0,-20.961834 z"
         style="fill:#0057b7;fill-opacity:1;stroke-width:0.17989"
         id="path5"
         inkscape:label="d_hole"
         sodipodi:nodetypes="cccc" />
    </g>
    <path
       id="rect9"
       style="stroke-width:0.580752"
       d="m 42.531254,6.298299 h 4.573817 7.853157 c 0,0 8.007773,0.6940488 8.007773,9.292534 0,8.598486 -8.007773,8.984069 -8.007773,8.984069 0,0 10.355811,-1.002516 10.355811,9.138299 0,10.140816 -10.355811,9.138303 -10.355811,9.138303 h -7.853157 -4.573817 z"
       sodipodi:nodetypes="ccczczcccc"
       inkscape:label="B" />
    <g
       id="g2"
       inkscape:label="D2"
       transform="matrix(1.1955016,0,0,1.2949127,29.358441,-34.141336)">
      <path
         d="m 40.629921,59.527559 c 5.237841,-1.653807 10.582888,-3.473976 15.092001,-6.684953 0.449608,-0.32017 1.161024,-0.865028 1.572086,-1.233688 1.669578,-1.497359 3.084487,-3.533101 3.037886,-5.7831 -0.01142,-0.551303 -0.214591,-1.430636 -0.409737,-1.946897 -0.97942,-2.591069 -3.229373,-4.481724 -5.493515,-6.052322 -0.45374,-0.314753 -1.205255,-0.801677 -1.678265,-1.086752 -3.550453,-2.139794 -7.378402,-3.812984 -11.266707,-5.22271 -0.519189,-0.188235 -1.389515,-0.336035 -1.9418,-0.336035 h -1.219035 c -0.552285,0 -0.998347,0.447712 -0.996307,0.999993 0.01138,3.08137 0.02276,6.162739 0.03414,9.244109 0.002,0.552281 -0.444022,0.999993 -0.996307,0.999993 h -8.72086 a 0.52448627,0.52448627 117.67639 0 0 -0.431478,0.822668 l 2.584943,3.740491 a 1.9066276,1.9066276 27.676394 0 0 1.568522,0.822668 h 5.028549 c 0.552285,0 0.99728,0.447707 0.993924,0.999982 -0.02171,3.572184 -0.04342,7.144368 -0.06512,10.716553"
         style="stroke-width:0.261951"
         id="path1"
         inkscape:label="d_main"
         inkscape:path-effect="#path-effect3"
         inkscape:original-d="m 40.629921,59.527559 c 5.552583,-1.753184 11.225643,-3.693325 15.895599,-7.279127 2.227475,-1.720394 4.332882,-4.426913 3.690158,-7.414264 -0.818208,-3.429122 -3.823458,-5.709796 -6.6144,-7.569032 -4.068811,-2.573047 -8.535232,-4.495078 -13.059408,-6.084034 -1.073011,0 -2.146023,0 -3.219035,0 0.01384,3.748032 0.02769,7.496063 0.04153,11.244095 -3.57362,0 -7.14724,0 -10.72086,0 1.240662,1.795276 2.481325,3.590551 3.721987,5.385827 2.34285,0 4.685699,0 7.028549,0 -0.02373,3.905512 -0.04747,7.811023 -0.0712,11.716535" />
      <path
         d="m 40.181399,37.612871 c 0.0645,5.319981 0.04811,12.902454 4e-6,18.222377 22.885885,-4.44076 22.101024,-15.224182 0,-20.961834 z"
         style="fill:#ffdd00;fill-opacity:1;stroke-width:0.17989"
         id="path2"
         inkscape:label="d_hole"
         sodipodi:nodetypes="cccc" />
    </g>
    <path
       id="rect3"
       style="stroke-width:0.349837"
       d="m 103.01881,6.2679468 c 2.28157,0.022005 4.56313,0.044011 6.8447,0.066016 2.34684,7.6143362 4.69369,15.2286712 7.04054,22.8430082 2.21628,-7.614337 4.43257,-15.228672 6.64885,-22.8430082 2.28157,0.022005 4.56313,0.044011 6.8447,0.066016 0,12.1697312 0,24.3394642 0,36.5091962 -1.89343,0 -3.78687,0 -5.6803,0 0,-6.822092 0,-13.644186 0,-20.466278 -1.77043,6.800086 -3.54084,13.600172 -5.31127,20.400258 -1.4963,0.02201 -2.99261,0.04401 -4.48892,0.06602 -1.95123,-6.932126 -3.90247,-13.864253 -5.8537,-20.796379 0,6.932126 0,13.864253 0,20.796379 -2.01485,0 -4.02969,0 -6.04454,0 -2e-5,-12.213742 -4e-5,-24.427484 -6e-5,-36.6412251 z" />
  </g>
</svg>
